HIERARCHY
ROOT hip
{
  OFFSET 0.0 0.0 0.0
  CHANNELS 6 Xposition Yposition Zposition Zrotation Yrotation Xrotation
  JOINT torso
  {
    OFFSET 0.0 0.0 0.0
    CHANNELS 3 Zrotation Xrotation Yrotation
    JOINT neck
    {
      OFFSET -31.42098999999993 328.8025209999999 74.3554680000002
      CHANNELS 3 Zrotation Xrotation Yrotation
      JOINT head
      {
        OFFSET 3.3519900000001144 303.81732099999994 206.53942900000015
        CHANNELS 3 Zrotation Xrotation Yrotation
        End Site
        {
          OFFSET 0.0 0.0 0.0
        }
      }
    }
    JOINT left_collar
    {
      OFFSET -31.42098999999993 328.8025209999999 74.3554680000002
      CHANNELS 3 Zrotation Xrotation Yrotation
      JOINT left_upper_arm
      {
        OFFSET -124.490479 -8.162841999999841 8.226441000000023
        CHANNELS 3 Zrotation Xrotation Yrotation
        JOINT left_forearm
        {
          OFFSET -253.595764 -1.5758060000000569 105.0729980000001
          CHANNELS 3 Zrotation Xrotation Yrotation
          JOINT left_hand
          {
            OFFSET -269.48803699999996 0.1478270000000066 -55.346191999999974
            CHANNELS 3 Zrotation Xrotation Yrotation
            End Site
            {
              OFFSET 0.0 0.0 0.0
            }
          }
        }
      }
    }
    JOINT right_collar
    {
      OFFSET -31.42098999999993 328.8025209999999 74.3554680000002
      CHANNELS 3 Zrotation Xrotation Yrotation
      JOINT right_upper_arm
      {
        OFFSET 162.02484099999998 0.46441600000002836 2.2303470000001653
        CHANNELS 3 Zrotation Xrotation Yrotation
        JOINT right_forearm
        {
          OFFSET 240.01246700000004 -25.835875999999985 121.34179699999959
          CHANNELS 3 Zrotation Xrotation Yrotation
          JOINT right_hand
          {
            OFFSET 252.48539699999992 18.910399999999868 -67.53466800000001
            CHANNELS 3 Zrotation Xrotation Yrotation
            End Site
            {
              OFFSET 0.0 0.0 0.0
            }
          }
        }
      }
    }
  }
}
MOTION
Frames: 14
Frame Time: 0.01
-160.017055825537 174.82545250274902 1073.3287578388997 25.695485950264423 -26.098110422375665 -71.5965769507857 0.48303564371045626 3.1741286143622838 0.20894534955619454 -18.919821304764614 11.72151652738525 11.689857532434878 0.0 0.0 0.0 -18.930774847468616 16.191279819585194 118.69344817808411 -1.1877905177247305 7.534371242856032 -143.50045358638363 -6.651800857438129 1.0603961791206706 -5.070136361498376 0.0 0.0 0.0 5.043615667621812 -0.13264807987244723 1.3459033922210621 -11.442255213319244 37.04326876685739 73.32080478311308 -38.8666195093892 -0.9354604913008846 34.13315488222367 0.0 0.0 0.0
-160.5738531835241 174.13926944270614 1072.9396846041268 25.860363766469398 -26.35899219841324 -71.70282871628385 0.45499326215523006 3.2039746259395154 0.21754801556639725 -18.966062995157415 11.718892013628057 11.719462097175043 0.0 0.0 0.0 -13.78375141863976 15.591688037080337 144.83969168215177 11.665840653185365 -37.82171175983197 -170.02420625978436 -30.047228915945418 7.800946891685704 5.281721654414395 0.0 0.0 0.0 4.9757678001526084 -0.12511322317854887 1.220768327246913 -11.48862846100426 37.14416056126482 73.33537360990653 -39.002403852166935 -0.9924287733069839 33.90811700734202 0.0 0.0 0.0
-161.10907368775798 173.47760667120374 1072.570961565151 26.01806081608683 -26.611309694341546 -71.80769537119065 0.4279549433466662 3.2372126926722116 0.22627763371517623 -19.008897780384498 11.714881692582674 11.747073672511402 0.0 0.0 0.0 -10.583764683605848 10.93298319467129 157.11096169800265 -179.27756175544198 -18.04386025072892 44.80195165297733 -3.975719730168371 4.532011805336684 73.57557158917065 0.0 0.0 0.0 4.907008647714445 -0.1181396275246094 1.1051115864518157 -11.536095894117963 37.24018578166286 73.34186524228964 -39.13698356036958 -1.0489202598587373 33.6869585278941 0.0 0.0 0.0
-161.61525790118336 172.8496473375696 1072.2281830389504 26.166279134223224 -26.851368265293576 -71.90968354383034 0.4026890167016498 3.2729854761507875 0.23489422374342342 -19.04803618138514 11.709844177410224 11.772466969705388 0.0 0.0 0.0 -8.728061753664392 5.434516319860802 163.5830203067288 -134.8533669084842 47.924538631960615 66.33522858647316 34.0471796281917 -22.044929997788234 41.786127125431456 0.0 0.0 0.0 4.838356363278733 -0.11180543217390303 1.0004757170951861 -11.583540874273035 37.32979992166639 73.34100247139123 -39.26802038191699 -1.1040409383960978 33.47308494411799 0.0 0.0 0.0
-162.0858243057356 172.26345065871888 1071.9161883854645 26.302948306603525 -27.075941033250068 -72.00735400530682 0.3799388597509934 3.3104356185270745 0.2431646114766374 -19.083301002090472 11.70412212465946 11.79548926655253 0.0 0.0 0.0 -7.570341927614746 0.07029571012185014 167.4285013707945 -91.37466026827549 57.914656876057016 102.41001858883865 39.20037061955298 -18.437238812138677 25.83776400607826 0.0 0.0 0.0 4.770886012299064 -0.1061674061313144 0.9080651416368748 -11.630017772275973 37.41177982830069 73.33349036397959 -39.39347914283744 -1.1569155448169122 33.26967919450915 0.0 0.0 0.0
-162.5152379219437 171.72574350435204 1071.6388974863576 26.426294004500527 -27.282363279524944 -72.0993793941203 0.36039872941775947 3.348742854563399 0.25087085204812176 -19.114631592438517 11.698026884726515 11.816065047210587 0.0 0.0 0.0 -6.809973929761001 -4.752643840819441 169.91369416205305 -66.97041239782551 55.2652519523716 122.54038546373366 39.37488323256895 -16.224793520488337 20.26722916594279 0.0 0.0 0.0 4.705695813064017 -0.10126059874047616 0.8287109388246451 -11.674775797620114 37.485265085387425 73.3200115746552 -39.51167262287458 -1.2067257772975426 33.079586824836944 0.0 0.0 0.0
-162.89912842911454 171.24177793226897 1071.3991917597193 26.534892975843462 -27.46859729297679 -72.18459451274424 0.34469180209315553 3.387156502929325 0.2578175714535857 -19.142082092041555 11.691826082956581 11.834196491427768 0.0 0.0 0.0 -6.307020984919827 -8.798401383093372 171.61713949289825 -54.503315196181205 51.436504065883994 132.1184551179951 39.128432493499176 -15.083493012721975 17.685845628525765 0.0 0.0 0.0 4.643871747687445 -0.09709914418774804 0.7628522555797711 -11.717268750264878 37.54977710591338 73.30122803145403 -39.62128280601081 -1.2527451219795902 32.905221317278 0.0 0.0 0.0
-163.23435795535735 170.81525513539353 1071.19884317856 26.627712412533313 -27.633267314843646 -72.26203636782719 0.33335126394892445 3.4250218976662903 0.2638379639386406 -19.16581435693362 11.685734882318831 11.849960150810345 0.0 0.0 0.0 -5.99264215086817 -11.907706834229492 172.83523149587577 -47.310358090037155 48.181950195376515 137.24281533894143 38.90171695434917 -14.395409605307007 16.17319114079346 0.0 0.0 0.0 4.5864519937722745 -0.09367795165718029 0.7105337053572409 -11.757151130891664 37.60521647743941 73.27778829222126 -39.721361585304045 -1.2943679673995339 32.74849339604932 0.0 0.0 0.0
-163.51904149619943 170.44831269391693 1071.0384912994823 26.704132579433256 -27.775665784292748 -72.33097202940398 0.32680501204540346 3.4617997071884354 0.2687982899326781 -19.186086531262763 11.679911322378938 11.863500361185823 0.0 0.0 0.0 -5.830906060107159 -13.969489357558833 173.73223808391063 -42.798046081443715 45.66529113121079 140.25958724027373 38.685569925138175 -13.869779575217672 15.039022638070536 0.0 0.0 0.0 4.534392590238301 -0.09097496713122664 0.6714172994351503 -11.794261965380809 37.651840548669696 73.25033951812013 -39.811315091309986 -1.3311313799877633 32.61076605151516 0.0 0.0 0.0
-163.75252494476507 170.1415693574 1070.9176663234857 26.763952554947256 -27.895733235237252 -72.39091341696341 0.32536425264380575 3.4970775129147516 0.2726008184826144 -19.2032383515508 11.674455757557446 11.875020070008283 0.0 0.0 0.0 -5.801334902651714 -14.909119947089088 174.4025154313542 -39.895349247540125 43.83292377361245 142.11131660097666 38.421143558708664 -13.360307801593938 13.973559136487987 0.0 0.0 0.0 4.48853565657165 -0.08895369467937697 0.6448069623319415 -11.828598389182226 37.690224294634795 73.21954275053635 -39.89087613458282 -1.362728680679072 32.492835162623095 0.0 0.0 0.0
-163.93532704661092 169.89421971405835 1070.8348546633172 26.807379840289556 -27.99401497883846 -72.4416191736913 0.32921604459416953 3.530573458861179 0.2751852419710722 -19.21767428893059 11.66941406606471 11.884769816761935 0.0 0.0 0.0 -5.890532444183627 -14.68247301902731 174.89912550859933 -38.092789213724984 42.61120884162295 143.23187171159464 38.047622913798655 -12.786508266433541 12.819629297158093 0.0 0.0 0.0 4.449581324530229 -0.08756570678958848 0.629683469876006 -11.860281486570157 37.72120814019731 73.18608999593623 -39.96006897735699 -1.3890146992428445 32.39493406884394 0.0 0.0 0.0
-164.06905231340306 169.70416993730183 1070.7876023359686 26.835005383836563 -28.071598189145316 -72.48308475871002 0.3384196503206066 3.562132209307828 0.2765286552835652 -19.2298455753752 11.664784000722952 11.893035607146055 0.0 0.0 0.0 -6.088535104902442 -13.273964850885399 175.2486303693519 -37.112176171014625 41.93046128638394 143.84917669924732 37.50321217787249 -12.102729720406412 11.49591853979487 0.0 0.0 0.0 4.4180643204427215 -0.08675294368964584 0.6247476690643252 -11.889517098492764 37.74583668124575 73.1507215090069 -40.01916998771934 -1.4100032093088055 32.31675931379925 0.0 0.0 0.0
-164.1562821362257 169.56820523354486 1070.7726506829451 26.84776618590796 -28.130033255757457 -72.51552268032079 0.35290643069286964 3.591713838120748 0.27664423597587046 -19.24023205250521 11.660523827056396 11.900126383592225 0.0 0.0 0.0 -6.387975231376417 -10.69856339824369 175.45992522279838 -36.77638732308976 41.72152933216557 144.10151703993714 36.72160870901474 -11.285831772023686 9.966797235890889 0.0 0.0 0.0 4.394335883408794 -0.08644968784115603 0.6284700266403468 -11.916554339249812 37.76529218988497 73.11424160480507 -40.06866689093383 -1.4258575166811256 32.25751406513701 0.0 0.0 0.0
-164.20045112877622 169.4821795515313 1070.7860983894423 26.846898063171498 -28.17124333672518 -72.5393353455361 0.37248294905746354 3.619376599303221 0.2755787885758136 -19.249324649408788 11.656562254804024 11.906361728559668 0.0 0.0 0.0 -6.784837423239546 -7.00740822062279 175.53022191430654 -36.947832850428476 41.90862835504141 144.09052703541997 35.63099588866789 -10.330775811778294 8.229169409751439 0.0 0.0 0.0 4.378551464361351 -0.08658418923386751 0.6391448357451512 -11.941644456279734 37.78082652394906 73.07753130864862 -40.109218492952316 -1.4368754710588973 32.215965377776605 0.0 0.0 0.0
